<?xml version="1.0" encoding="utf-8"?>
<!-- Generator: Adobe Illustrator 16.0.0, SVG Export Plug-In . SVG Version: 6.00 Build 0)  -->
<!DOCTYPE svg PUBLIC "-//W3C//DTD SVG 1.1//EN" "http://www.w3.org/Graphics/SVG/1.1/DTD/svg11.dtd">
<svg version="1.1" id="a281da36-03ff-4df9-8bcc-0ac71230b2d7"
	 xmlns="http://www.w3.org/2000/svg" xmlns:xlink="http://www.w3.org/1999/xlink" x="0px" y="0px" width="1177.82px"
	 height="725.16px" viewBox="0 0 1177.82 725.16" enable-background="new 0 0 1177.82 725.16" xml:space="preserve">
<ellipse opacity="0.1" fill="#6C63FF" cx="588.705" cy="555.971" rx="588.705" ry="168.189"/>
<title>printing invoices</title>
<path fill="#444053" d="M793.44,62.386l0.271,0.47c-25.217,31.488-26.887,80.42-26.947,80.804l-5.318-6.187
	C761.509,137.078,768.052,94.096,793.44,62.386z"/>
<path fill="none" stroke="#444053" stroke-miterlimit="10" d="M805.441,139.404c0,0-13.609-28.581-1.496-47.176"/>
<path fill="none" stroke="#444053" stroke-miterlimit="10" d="M778.185,49.618c0,0,0,26.291-7.15,28.159"/>
<path fill="none" stroke="#444053" stroke-miterlimit="10" d="M719.677,83.679c0,0,28.457,2.474,41.534-12.236"/>
<rect x="348.767" y="107.062" fill="#33323D" width="475.345" height="239.949"/>
<rect x="200.694" y="419.91" fill="#33323D" width="773" height="157.943"/>
<polygon fill="#FFFFFF" stroke="#999999" stroke-miterlimit="10" points="385.216,459.39 781.589,459.39 860.56,725.16 
	301.689,725.16 "/>
<polygon fill="#504F60" points="178.671,325.743 178.671,407.761 178.671,425.032 178.671,577.843 326.742,577.843 326.742,432.059 
	847.644,432.059 847.644,577.843 995.717,577.843 995.717,425.032 995.717,407.761 995.717,325.743 "/>
<rect x="178.671" y="325.743" opacity="0.1" fill="#33323D" enable-background="new    " width="817.045" height="82.005"/>
<circle opacity="0.8" fill="#8CCF4D" enable-background="new    " cx="951.682" cy="366.758" r="12.149"/>
<circle opacity="0.8" fill="#FA5959" enable-background="new    " cx="897.01" cy="366.758" r="12.149"/>
<rect x="366.236" y="49.346" fill="#FFFFFF" stroke="#999999" stroke-miterlimit="10" width="440.418" height="261.204"/>
<linearGradient id="SVGID_1_" gradientUnits="userSpaceOnUse" x1="551.5896" y1="624.2578" x2="551.5896" y2="860.3721" gradientTransform="matrix(1 0 0 -1 -313.4688 978.0508)">
	<stop  offset="0" style="stop-color:#808080;stop-opacity:0.25"/>
	<stop  offset="0.54" style="stop-color:#808080;stop-opacity:0.12"/>
	<stop  offset="1" style="stop-color:#808080;stop-opacity:0.1"/>
</linearGradient>
<path fill="url(#SVGID_1_)" d="M337.371,313.446l-24.398-35.386c0,0-0.458-8.76-2.054-10.801c-1.597-2.042-0.347-6.595-0.347-6.595
	s1.721-2.474,0.233-2.734c-1.483-0.26-0.233-5.803-0.233-5.803l-0.11-8.871c0,0,1.373-8.538,0.234-10.579
	c-0.688-1.131-0.644-2.561,0.109-3.649c0,0,1.362-4.887,0-6.187c-1.359-1.299-1.026-8.871-0.691-14.909
	c0.333-6.037-2.39-9.439-2.39-10.343c0-0.904-9.007-9.787-9.007-10.591c0-0.804-5.704-4.095-9.131-4.949
	c-3.428-0.854-5.123-1.596-5.012-2.053c0.112-0.458-5.355-2.265-5.355-2.265s-4.788-0.347-6.62-2.734
	c-1.831-2.388-7.424-3.082-7.561-3.106l-0.11-0.47c0-0.174-0.062-0.347-0.1-0.52c0.452-0.72,0.865-1.463,1.237-2.227l0.323-0.692
	c2.003,0.013,3.962-0.597,5.604-1.745c1.636-1.355,2.628-3.335,2.734-5.456c0.098-2.104-0.362-4.195-1.335-6.063
	c-1.003-2.042-2.475-4.169-1.955-6.396c0.223-0.953,0.792-1.794,1.088-2.734c0.444-1.836,0.15-3.772-0.816-5.395
	c-0.865-1.645-2.065-3.105-3.031-4.701c-1.225-2.043-2.043-4.303-2.413-6.656c-0.069-1.252-0.366-2.48-0.878-3.625
	c-0.518-0.807-1.201-1.494-2.005-2.016c-3.568-2.547-7.878-3.851-12.26-3.712c-3.105,0.099-6.186,0.94-9.278,0.557
	c-1.845-0.317-3.656-0.789-5.421-1.41c-3.822-1.139-8.239-1.596-11.567,0.594s-4.651,6.496-6.916,9.898
	c-1.992,2.969-4.949,5.468-6.435,8.661c0,0,0-0.124,0-0.173c-0.375,0.727-0.661,1.495-0.854,2.289
	c-0.424,2.52-0.251,5.106,0.508,7.547c0.168,1.313,0.826,2.516,1.844,3.364c1.125,0.73,2.672,0.558,3.983,0.792l-0.148,0.644
	c-2.768,13.261,5.093,26.429,18.077,30.288c0,0.235,0,0.458,0,0.693c-0.003,0.653-0.045,1.306-0.125,1.954l0,0
	c0,0-11.469-2.362-14.55-0.767c-3.081,1.597-9.119,2.846-10.033,3.712c-0.916,0.865-3.191,0.235-5.246,5.58
	c-2.054,5.345-2.275,10.801-4.948,13.312c-2.674,2.512-3.984,4.207-4.108,6.026c-0.123,1.818,0.347,2.276-0.68,2.845
	c-1.027,0.57-2.476,2.958-2.055,3.873c0.322,1.281-0.168,2.628-1.236,3.402c-1.102,0.774-1.708,2.074-1.597,3.416
	c0,0-0.691,2.474-2.289,3.081c-1.596,0.606-2.623,4.318-2.623,4.318l-5.171,5.938l-10.245-11.333
	c-1.603-1.764-4.327-1.901-6.101-0.31l-5.035,4.529c-1.939,0.471-3.693,1.514-5.036,2.994c-1.091,1.132-1.975,2.447-2.61,3.885
	l-2.747,2.474c-1.773,2.198-2.057,5.246-0.717,7.733l6.569,7.263v0.062c-2.329,0.205-4.54,1.106-6.347,2.585
	c-9.8,8.661-9.898,16.617-8.438,20.254c1.459,3.637,13.907,17.631,13.907,17.631s7.226,9.391,17.654,14.376l0,0l-0.073,0.087
	c-0.215,0.225-0.417,0.459-0.606,0.706l-0.174,0.222l-0.16,0.222l-0.187,0.273c-0.049,0.071-0.095,0.146-0.136,0.223l-0.198,0.321
	c-0.046,0.072-0.087,0.146-0.123,0.222c-0.087,0.15-0.161,0.297-0.235,0.446c-0.026,0.048-0.052,0.098-0.073,0.148
	c-0.1,0.198-0.198,0.396-0.285,0.619l-0.099,0.222c-0.062,0.149-0.112,0.297-0.174,0.459c-0.038,0.097-0.07,0.196-0.099,0.296
	l-0.148,0.446c-0.04,0.104-0.072,0.213-0.1,0.322c0,0.16-0.098,0.321-0.135,0.495c-0.037,0.173-0.062,0.198-0.087,0.31
	c-0.024,0.111-0.123,0.532-0.173,0.816c0,0.099,0,0.209-0.062,0.321c-0.062,0.111-0.062,0.383-0.099,0.582
	c-0.038,0.198,0,0.271,0,0.42l-0.075,0.557v0.445c0,0.212,0,0.422-0.062,0.644c-0.062,0.222,0,0.26,0,0.396c0,0.358,0,0.717,0,1.101
	c-0.223,13.312,0.558,15.243,0.558,15.243c1.037,2.504,3.354,4.244,6.05,4.541c0.649,0.051,1.303,0.017,1.943-0.099
	c5.938-1.027,19.796-3.416,24.744-2.476c2.957,0.545,8.413-0.271,12.299-1.002l1.025-0.197l0.706,2.265l2.252-0.619l1.917,1.101
	l1.237,0.706c2.252,7.621,11.383,5.022,11.383,5.022l2.165,1.237l22.011,0.569c2.471,1.489,5.082,2.731,7.794,3.711
	c0.359,0.118,0.729,0.2,1.103,0.249c2.058,0.167,4.124,0.203,6.187,0.11c1.683,0,2.98-0.11,2.98-0.11s-0.223-5.976-0.543-12.669
	c6.823-0.17,13.629-0.726,20.389-1.67c11.754-2.054,16.653-12.743,18.459-18.459c0.541,2.334,0.926,4.702,1.151,7.089
	c0.479,2.098,1.092,4.164,1.831,6.186c0.63,1.615,1.462,3.145,2.475,4.552c8.661-2.956,3.415-7.423,1.597-9.327
	c-1.817-1.906,1.236-3.528,1.236-3.528s2.401-1.595,2.165-3.067c-0.233-1.473-0.345-3.069,7.424-2.958
	C337.854,319.891,337.371,313.446,337.371,313.446z M216.963,240.808c0.1,0.643,1.238,7.658,2.152,9.501
	c0.273,1.217,0.361,2.468,0.259,3.711c-4.59-0.371-9.378-0.569-9.378-0.569c0.135,0.167,0.221,0.369,0.248,0.582l-0.729-0.161
	l-1.04-0.248l8.462-12.88L216.963,240.808z M200.186,267.482l7.955,1.237l0.667,0.099c-0.226,1.226-0.361,2.466-0.407,3.711
	c0,0.124,0.173,0.26,0.432,0.421c-0.11,0.625-0.16,1.259-0.147,1.893c0.123,0.619,3.835,1.979,8.104,3.106
	c-0.062,0.235-0.11,0.458-0.172,0.656l0,0c-3.772-1.98-9.7-2.908-10.381-4.38c-0.68-1.472-20.871-8.525-20.871-8.525l-2.004-1.001
	l5.308,1.001l1.459-0.148C193.436,266.413,196.795,267.058,200.186,267.482z"/>
<path fill="#65617D" d="M311.414,318.396c0,0-3.153,19.102-19.201,21.923c-16.048,2.82-69.619,2.264-69.619,2.264
	s-30.634-4.417-41.707-30.288s-18.2-36.177-8.661-36.623c9.539-0.445,60.697,17.321,63.631,17.519
	C238.788,293.39,314.247,253.86,311.414,318.396z"/>
<path opacity="0.05" enable-background="new    " d="M311.414,318.396c0,0-3.153,19.102-19.201,21.923
	c-16.048,2.82-69.619,2.264-69.619,2.264s-30.634-4.417-41.707-30.288s-18.2-36.177-8.661-36.623
	c9.539-0.445,60.697,17.321,63.631,17.519C238.788,293.39,314.247,253.86,311.414,318.396z"/>
<path fill="#3F3D56" d="M167.758,339.663c1.015,2.492,3.313,4.226,5.988,4.517c0.65,0.039,1.302,0.002,1.942-0.113
	c5.877-1.014,19.66-3.389,24.522-2.475c2.919,0.534,8.326-0.271,12.174-0.989c2.562-0.483,4.442-0.94,4.442-0.94
	s-4.529-15.034-5.086-15.478c-0.556-0.446-20.352-12.373-20.352-12.373l-15.663-1.126l0,0c-2.11,0.315-4.016,1.432-5.322,3.117
	c-1.645,2.004-3.067,5.284-3.167,10.666C166.979,337.719,167.758,339.663,167.758,339.663z"/>
<path opacity="0.05" enable-background="new    " d="M167.758,339.663c1.015,2.492,3.313,4.226,5.988,4.517
	c-1.533-1.981-2.954-4.047-4.256-6.187l0.086-10.962c-0.631-6.096,1.664-12.132,6.188-16.269l0,0c0,0-8.252,0.555-8.487,13.782
	C167.041,337.769,167.758,339.663,167.758,339.663z"/>
<path opacity="0.1" enable-background="new    " d="M235.695,315.685l14.587-11.419l22.939-22.604l-6.188-0.284
	c-0.928,0.593-3.525,2.474-3.625,4.725c-0.111,2.758-6.186,0.198-9.366,1.77c-3.18,1.571-18.646,21.403-21.354,21.268
	c-2.71-0.136-4.863-1.374-6.001,0.556l-0.074,0.125L235.695,315.685z"/>
<path opacity="0.1" enable-background="new    " d="M170.369,313.829c0.521,0.248,1.051,0.495,1.583,0.716
	c11.073,4.752,24.745,14.7,25.772,16.506c0.617,1.101,8.549,5.915,14.662,9.526c2.561-0.483,4.441-0.941,4.441-0.941
	s-4.529-15.032-5.086-15.478c-0.556-0.444-20.353-12.373-20.353-12.373l-15.662-1.125l0,0
	C173.596,310.98,171.674,312.117,170.369,313.829z"/>
<path fill="#65617D" d="M139.636,281.438c1.459,3.612,13.782,17.52,13.782,17.52s7.794,10.171,18.879,14.847
	c11.085,4.678,24.745,14.698,25.76,16.504c0.656,1.164,9.489,6.484,15.699,10.134l1.399,0.817l3.08,1.794l1.633,0.928
	c0,0,3.786-3.032,7.561-6.087c3.772-3.057,7.423-6.051,7.423-6.186c0-0.136,1.583-4.183,1.236-4.405
	c-0.347-0.223-0.953-1.682-2.388-3.501c-1.515-2.017-3.486-3.644-5.752-4.75c-3.279-1.686-5.896-4.427-7.424-7.782
	c0,0-0.495-0.359-1.237-0.841c-1.54-1.057-3.259-1.826-5.074-2.264c-2.475-0.309-7.126-5.395-7.126-5.395
	c-1.809-1.176-3.317-2.762-4.403-4.627c-1.237-2.475-18.72-14.524-20.342-15.638l42.486,27.293L235,316.333l14.587-11.408
	l22.938-22.604l-7.572-0.347c-11.135-0.482-30.931-1.237-33.405-0.668c-2.026,0.466-4.115,0.604-6.186,0.409
	c0,0-5.643,0.246-9.378-1.721c-3.737-1.967-9.614-2.894-10.294-4.354c-0.681-1.46-20.674-8.462-20.674-8.462
	s-27.22-14.464-36.957-5.877C138.324,269.883,138.164,277.801,139.636,281.438z"/>
<path fill="#EE8E9E" d="M227.442,198.481l3.502,11.643l4.528,26.217l16.615,1.126l4.751-7.918l4.801-7.968
	c0,0,2.995-10.59,5.146-20.835c1.894-9.068,3.144-17.877,1.076-18.83c-1.843-0.842-3.043-3.897-3.834-7.188
	c-0.101-0.396-0.188-0.817-0.26-1.237c-0.556-2.781-0.928-5.596-1.114-8.425c0,0-34.803-1.806-29.941,12.546
	c0.868,2.451,1.312,5.033,1.312,7.634c0,0.667,0,1.324-0.125,1.942C233.412,191.686,231.073,195.778,227.442,198.481z"/>
<path fill="#E3E8F4" d="M220.217,196.564l1.237,19.795l2.82,16.839l3.168,7.807l2.834,42.661c0,0,27.219,3.154,33.875-0.063
	c0.491-0.187,0.919-0.508,1.237-0.927c8.005-12.087,5.383-47.101,5.383-47.101l3.043-22.604l-2.03-11.729l-4.949-0.52l-3.786-0.409
	c0,0-0.854,1.051-2.091,2.685c-3.353,4.417-9.513,13.127-9.093,16.752c0.557,4.949-0.68,10.059-2.611,10.851
	c-1.929,0.792-3.501,2.152-3.834,0.792c-0.48-1.141-0.602-2.401-0.347-3.613c0.347-1.93-1.472-7.806-1.472-7.806
	s-3.043-6.892-2.821-9.824s-0.335-6.334-1.237-7.126c-0.903-0.792-2.152-1.584-1.139-5.197c1.015-3.612-4.454-10.652-4.454-10.652
	L220.217,196.564z"/>
<path opacity="0.1" enable-background="new    " d="M256.208,245.954l1.139,33.79l6.521,3.625c0.49-0.195,0.917-0.522,1.237-0.94
	c8.005-12.088,5.382-47.102,5.382-47.102l3.056-22.604l-2.041-11.729l-4.948-0.52c1.905-9.069,3.143-17.865,1.075-18.831
	c-1.843-0.841-3.043-3.897-3.823-7.176l0,0l-3.525,23.903c0,0,0.297,2.153,0.396,4.38c0.146,1.409,0.05,2.831-0.285,4.207
	c-0.457,1.85-0.533,3.774-0.223,5.655c-2.042,3.587-3.056,10.244-3.551,16.665C255.948,237.813,256.208,245.954,256.208,245.954z"/>
<path fill="#3F3D56" d="M263.903,173.873c0,0,5.705,0.705,7.511,3.081c1.808,2.376,6.559,2.722,6.559,2.722s5.418,1.806,5.308,2.252
	c-0.111,0.445,1.584,1.138,4.949,2.042c3.366,0.903,9.044,4.182,9.044,4.949s8.921,9.601,8.921,10.503
	c0,0.903,2.708,4.293,2.375,10.282c-0.334,5.988-0.681,13.609,0.68,14.847c1.361,1.237,0,6.1,0,6.1
	c-0.746,1.081-0.789,2.5-0.109,3.625c1.125,2.029-0.235,10.504-0.235,10.504l0.125,8.821c0,0-1.236,5.531,0.223,5.766
	c1.46,0.235-0.223,2.709-0.223,2.709s-1.236,4.516,0.333,6.557c1.571,2.042,2.029,10.727,2.029,10.727l24.188,35.15
	c0,0,0.347,6.446-7.338,6.335c-7.684-0.111-7.584,1.472-7.349,2.933c0.234,1.459-2.152,3.056-2.152,3.056s-3.044,1.584-1.237,3.501
	s7.003,6.335-1.584,9.268c-1.012-1.396-1.843-2.914-2.475-4.517c-0.729-1.995-1.33-4.031-1.807-6.099c0,0-0.792-8.6-2.375-9.726
	c-1.583-1.126-1.36-6.557-1.36-6.557s2.266-4.404-0.903-6.186c-3.167-1.782-49.044-27.219-49.044-27.219l-1.114-33.801
	c0,0-0.792-24.979,3.959-33.344c-0.311-1.88-0.233-3.804,0.223-5.653c0.792-2.03-0.111-8.587-0.111-8.587L263.903,173.873z"/>
<path opacity="0.1" enable-background="new    " d="M234.285,187.483c0,0-11.359-2.339-14.415-0.755
	c-3.056,1.583-9.031,2.821-9.897,3.711c-0.866,0.891-3.154,0.236-5.196,5.543c-2.041,5.308-2.252,10.739-4.862,13.226
	s-3.947,4.182-4.059,5.988c-0.111,1.806,0.335,2.264-0.681,2.821c-1.015,0.556-2.475,2.944-2.042,3.847
	c0.435,0.903,23.509,20.798,23.509,20.798s1.138,7.571,2.152,9.49c1.016,1.917-1.126,28.37-3.391,30.176
	c-2.264,1.807,15.206,1.658,15.206,1.658s0.792-17.321,1.473-18.262c0.682-0.94-0.458-19.437-0.458-19.437s-0.11-15.824,1.36-20.006
	c1.473-4.182,1.237-18.089,1.237-18.089s1.3-8.338,2.883-10.281C238.689,195.97,234.285,187.483,234.285,187.483z"/>
<path fill="#3F3D56" d="M233.95,187.148c0,0-11.357-2.338-14.413-0.767c-3.057,1.572-9.044,2.833-9.896,3.712
	c-0.854,0.878-3.168,0.223-5.197,5.542c-2.03,5.321-2.264,10.727-4.863,13.214c-2.598,2.486-3.958,4.181-4.071,5.988
	c-0.11,1.806,0.348,2.264-0.68,2.833c-1.026,0.569-2.474,2.933-2.028,3.836c0.444,0.903,23.508,20.798,23.508,20.798
	s1.126,7.572,2.152,9.49c1.027,1.917-1.138,28.37-3.401,30.176c-2.266,1.806,15.267,1.646,15.267,1.646s0.791-17.321,1.459-18.25
	c0.668-0.928-0.446-19.45-0.446-19.45s-0.11-15.811,1.361-19.994c1.472-4.182,1.299-18.088,1.299-18.088s1.299-8.339,2.883-10.281
	C238.467,195.611,233.95,187.148,233.95,187.148z"/>
<path opacity="0.1" enable-background="new    " d="M232.762,177.585c0.866,2.451,1.311,5.033,1.312,7.634
	c11.422,3.345,23.656-1.497,29.694-11.754c-0.556-2.781-0.928-5.596-1.114-8.426C262.654,165.039,227.901,163.221,232.762,177.585z"
	/>
<path fill="#EE8E9E" d="M215.577,159.719c-0.009,14.301,11.577,25.903,25.878,25.912c14.302,0.01,25.903-11.576,25.913-25.877
	c0.008-14.302-11.577-25.903-25.878-25.913c-12.229-0.008-22.794,8.537-25.344,20.496
	C215.767,156.106,215.576,157.91,215.577,159.719z"/>
<path fill="#3F3D56" d="M198.961,219.651l-6.186,1.917c0.324,1.277-0.167,2.622-1.237,3.391c-1.096,0.764-1.695,2.06-1.57,3.39
	c0,0-0.68,2.474-2.264,3.056c-1.584,0.582-2.598,4.293-2.598,4.293l-5.197,5.989c0,0-1.931,1.583-1.584,2.375
	s-2.042,1.014-2.042,1.014l1.238,20.118l10.739,2.042l6.669-0.68l5.418-2.029l4.751-2.833l2.141-5.531l9.501-14.475L198.961,219.651
	z"/>
<path fill="#EE8E9E" d="M177.829,246.622c0,0-13.782-19.882-24.077-9.155c-10.293,10.726,4.184,28.147,7.572,27.578
	c3.39-0.569,19.562-1.472,19.562-1.472L177.829,246.622z"/>
<path fill="#3F3D56" d="M150.947,228.602l31.685,16.172c0.488,0.25,0.683,0.846,0.434,1.333l-12.355,24.207
	c-0.249,0.488-0.846,0.682-1.334,0.433l-31.685-16.172c-0.488-0.25-0.683-0.846-0.434-1.334l12.356-24.207
	C149.862,228.546,150.459,228.353,150.947,228.602z"/>
<rect x="144.431" y="237.737" transform="matrix(-0.8907 -0.4546 0.4546 -0.8907 189.4333 544.8147)" fill="#6C63FF" width="31.57" height="23.792"/>
<circle fill="#E6E8EC" cx="196.623" cy="262.459" r="1.646"/>
<path fill="#EE8E9E" d="M168.908,250.804c-0.124,14.921,30.733,18.088,30.733,18.088l7.881,1.237l3.539,0.557l1.473-14.575
	c0,0-1.622-0.248-3.639-0.717c-2.993-0.692-6.866-1.893-7.671-3.588C199.926,248.998,168.995,235.884,168.908,250.804z"/>
<path opacity="0.1" enable-background="new    " d="M216.147,154.337c0.708,0.052,1.378,0.35,1.892,0.841
	c0.866,0.928,0.916,2.574,2.054,3.144c0.426,0.18,0.895,0.23,1.349,0.147c3.007-0.42,4.739-3.811,7.635-4.751
	c1.683-0.432,3.463-0.279,5.047,0.433c0.645,0.209,1.225,0.58,1.684,1.076c0.965,1.237,0.284,3.093,0.729,4.603
	c0.619,2.103,3.13,2.933,5.296,3.204c2.165,0.272,4.615,0.433,6.062,2.066c0.969,1.239,1.359,2.833,1.077,4.38
	c-0.132,0.532-0.132,1.088,0,1.62c0.593,1.695,3.525,1.436,4.293,0.099c0.568-0.978,0.396-1.782,1.719-2.054
	c0.946-0.075,1.896,0.091,2.76,0.483c2.303,0.791,4.729,1.163,7.164,1.101c6.067-12.942,0.496-28.354-12.447-34.422
	c-12.942-6.069-28.354-0.496-34.423,12.446c-0.836,1.784-1.467,3.657-1.877,5.583L216.147,154.337L216.147,154.337z"/>
<path fill="#3F3D56" d="M248.957,170.421c-0.129-0.533-0.129-1.089,0-1.621c0.287-1.543-0.105-3.134-1.075-4.367
	c-1.447-1.646-3.886-1.795-6.062-2.079c-2.177-0.285-4.677-1.102-5.295-3.204c-0.446-1.51,0.235-3.354-0.729-4.59
	c-0.452-0.506-1.035-0.878-1.684-1.076c-1.583-0.716-3.362-0.873-5.048-0.446c-2.896,0.94-4.626,4.331-7.634,4.751
	c-0.454,0.089-0.925,0.037-1.349-0.148c-1.138-0.569-1.237-2.215-2.054-3.143c-1.373-1.447-3.984-0.507-5.654-1.583
	c-1.013-0.845-1.667-2.044-1.831-3.353c-0.749-2.427-0.917-4.994-0.496-7.497c0.978-4.195,4.738-7.078,7.127-10.678
	c2.239-3.341,3.501-7.572,6.854-9.787c3.353-2.214,7.67-1.719,11.469-0.594c1.746,0.623,3.542,1.095,5.371,1.411
	c3.056,0.372,6.123-0.458,9.192-0.557c4.348-0.14,8.622,1.165,12.149,3.712c0.795,0.519,1.472,1.202,1.979,2.004
	c0.51,1.137,0.812,2.356,0.891,3.601c0.361,2.335,1.173,4.579,2.389,6.606c0.94,1.596,2.141,3.031,2.994,4.676
	c0.955,1.613,1.247,3.533,0.816,5.357c-0.296,0.928-0.865,1.77-1.088,2.722c-0.495,2.202,0.953,4.317,1.941,6.347
	c0.964,1.857,1.42,3.935,1.324,6.025c-0.106,2.105-1.09,4.07-2.71,5.418c-1.681,1.166-3.684,1.776-5.729,1.745
	c-2.479,0.076-4.953-0.297-7.301-1.101c-0.864-0.386-1.812-0.552-2.758-0.482c-1.324,0.272-1.149,1.077-1.72,2.054
	C252.485,171.856,249.564,172.116,248.957,170.421z"/>
<path opacity="0.1" enable-background="new    " d="M235.014,316.353l14.587-11.408l22.938-22.604l-7.571-0.345
	c-0.89,0.802-1.456,1.901-1.597,3.093c-0.11,2.758-6.186,0.185-9.366,1.769c-3.179,1.583-18.646,21.404-21.354,21.268
	c-2.71-0.136-4.862-1.373-6.002,0.544l-0.073,0.123c-0.452,0.521-1.06,0.881-1.731,1.027L235.014,316.353z"/>
<path fill="#65617D" d="M205.63,315.561l7.325,23.396l1.15,3.712l3.49-0.952l7.694-2.115l34.248-9.405
	c4.313-0.186,8.535-1.31,12.372-3.291c6.475-3.626,13.883-5.243,21.28-4.64c4.528,0.422,9.563-1.533,13.746-9.254
	c0,0,9.49-28.022-14.461-36.053c-23.953-8.029-25.104,4.268-25.104,4.268l-0.335,0.198c-0.928,0.594-3.524,2.475-3.625,4.727
	c-0.11,2.759-6.186,0.198-9.366,1.769c-3.18,1.572-18.646,21.405-21.354,21.269c-2.71-0.137-4.863-1.374-6.001,0.557l-0.074,0.123
	c-0.842,1.15-3.353,1.424-5.022,1.46c-0.52,0.027-1.039,0.027-1.56,0l-0.223,0.062l-1.732,0.52L205.63,315.561z"/>
<path opacity="0.1" enable-background="new    " d="M207.523,270.143l3.539,0.557l1.473-14.575c0,0-1.622-0.248-3.639-0.718
	C209.428,257.448,208.216,265.305,207.523,270.143z"/>
<path opacity="0.1" enable-background="new    " d="M299.945,202.02c0,0,10.503-3.056,7.905,26.787
	c-1.805,18.213-9.546,35.329-22.036,48.709c0,0-22.382,9.824-32.44,8.24c-10.059-1.583-17.396-1.917-17.396-1.917
	c-3.169-1.601-6.638-2.522-10.183-2.71c-5.641-0.223-17.507-3.712-17.74-4.862c-0.236-1.15,2.943-17.742,1.584-18.979
	c0,0,15.822,0.643,17.406,1.781c1.584,1.138,3.849,0.334,5.543,0c1.695-0.334,6.893-4.837,17.174-0.878c0,0,3.501,0.333,4.861-0.569
	c1.11-0.517,2.373-0.596,3.539-0.223c0.879-0.292,1.713-0.709,2.475-1.238c0.335-0.445,3.056,0,3.056,0
	c0.625,0.279,1.355,0,1.635-0.625c0.024-0.054,0.045-0.11,0.062-0.167c0.356-0.923,0.896-1.764,1.584-2.475
	c0,0,3.044-17.173,8.809-23.619c0.934-0.817,1.399-2.047,1.237-3.278C276.549,224.167,286.384,198.395,299.945,202.02z"/>
<path fill="#3F3D56" d="M299.66,199.719c0,0,10.517-3.044,7.919,26.786c-1.801,18.215-9.543,35.332-22.036,48.71
	c0,0-22.382,9.834-32.439,8.252c-10.06-1.584-17.409-1.955-17.409-1.955c-3.164-1.602-6.628-2.524-10.169-2.709
	c-5.655-0.235-17.521-3.712-17.742-4.863c-0.224-1.15,2.931-17.742,1.583-18.992c0,0,15.825,0.657,17.409,1.794
	c1.584,1.138,3.834,0.321,5.53,0c1.694-0.322,6.892-4.838,17.187-0.891c0,0,3.501,0.347,4.85-0.556
	c1.11-0.513,2.371-0.597,3.539-0.235c0.876-0.299,1.708-0.715,2.476-1.237c0.333-0.458,3.043,0,3.043,0
	c0.624,0.278,1.354-0.001,1.634-0.625c0.024-0.054,0.044-0.11,0.06-0.167c0.359-0.922,0.896-1.763,1.585-2.474
	c0,0,3.056-17.172,8.82-23.619c0.936-0.817,1.399-2.048,1.238-3.279C276.276,221.877,286.1,196.144,299.66,199.719z"/>
<path opacity="0.1" enable-background="new    " d="M218.039,311.849l14.921,18.063l0.101-0.098c0.11-0.347,1.584-4.182,1.236-4.417
	c-0.347-0.234-2.933-5.877-8.129-8.253c-2.642-1.289-4.861-3.307-6.396-5.815L218.039,311.849z"/>
<path opacity="0.1" enable-background="new    " d="M218.237,343.114l1.633,0.928c0,0,3.786-3.03,7.561-6.086
	c3.772-3.057,7.423-6.052,7.423-6.187c0-0.136,1.583-4.182,1.236-4.405c-0.347-0.223-0.953-1.682-2.388-3.501
	c-10.121-2.834-3.712,4.195-2.82,4.516c0,0-12.311-2.833-12.99,10.591C217.832,340.36,217.948,341.753,218.237,343.114z"/>
<path fill="#3F3D56" d="M230.72,348.793l2.152,1.237l21.814,0.558c2.444,1.487,5.03,2.73,7.719,3.711
	c0.356,0.106,0.722,0.185,1.089,0.234c2.025,0.166,4.06,0.203,6.088,0.112c1.67,0,2.957-0.112,2.957-0.112
	s-1.026-27.503-1.807-30.398c-0.371-1.386-2.203-1.088-4.009-0.396c-1.354,0.555-2.662,1.216-3.91,1.979
	c0,0-9.254,0.903-10.728,1.695c-1.472,0.792-5.652-0.458-8.252,0c-2.598,0.458-7.238-3.056-7.238-3.056
	c-12.656-4.182-5.53,3.612-4.626,3.959c0,0-12.373-2.833-13.005,10.591C218.336,352.332,230.72,348.793,230.72,348.793z"/>
<path fill="#565387" d="M262.258,338.177c0.236,5.692,4.679,12.757,7.326,16.493c1.67,0,2.957-0.111,2.957-0.111
	s-1.026-27.504-1.807-30.399c-0.371-1.386-2.203-1.088-4.009-0.395C264.535,327.872,262.061,333.576,262.258,338.177z"/>
<path opacity="0.1" enable-background="new    " d="M262.258,338.177c0.236,5.692,4.679,12.757,7.326,16.493
	c1.67,0,2.957-0.111,2.957-0.111s-1.026-27.504-1.807-30.399c-0.371-1.386-2.203-1.088-4.009-0.395
	C264.535,327.872,262.061,333.576,262.258,338.177z"/>
<path opacity="0.05" enable-background="new    " d="M258.522,338.933c1.51,5.493,1.484,11.655,3.885,15.391
	c0.356,0.107,0.722,0.185,1.089,0.235c2.025,0.167,4.06,0.202,6.088,0.111c1.67,0,2.957-0.111,2.957-0.111
	s-1.026-27.504-1.807-30.399c-0.371-1.386-2.203-1.088-4.009-0.395c-1.354,0.553-2.662,1.216-3.91,1.979
	C262.815,325.743,256.605,331.892,258.522,338.933z"/>
<path opacity="0.1" enable-background="new    " d="M183.273,283.17c0,0,10.838,3.513,20.018,16.009L183.273,283.17z"/>
<g opacity="0.1">
	<path d="M271.315,147.544c0,0.087,0,0.162-0.062,0.248c-0.104,0.322-0.231,0.636-0.383,0.94
		C270.989,148.326,271.137,147.929,271.315,147.544z"/>
	<path d="M210.022,142.064c0.184-0.792,0.466-1.557,0.841-2.277c0,0.185-0.124,0.383-0.172,0.582
		c-0.412,2.504-0.239,5.07,0.507,7.497c0.164,1.307,0.813,2.503,1.818,3.353c1.683,1.077,4.292,0.136,5.667,1.583
		c0.865,0.928,0.916,2.574,2.054,3.143c0.424,0.186,0.894,0.237,1.348,0.148c3.006-0.42,4.739-3.811,7.635-4.75
		c1.685-0.434,3.466-0.276,5.048,0.445c0.648,0.198,1.229,0.57,1.683,1.076c0.964,1.238,0.284,3.081,0.73,4.59
		c0.617,2.103,3.13,2.933,5.296,3.204c2.165,0.272,4.613,0.434,6.062,2.079c0.97,1.233,1.363,2.824,1.077,4.367
		c-0.13,0.533-0.13,1.089,0,1.621c0.594,1.695,3.526,1.436,4.292,0.099c0.569-0.978,0.396-1.781,1.721-2.054
		c0.945-0.068,1.894,0.097,2.759,0.483c2.348,0.804,4.82,1.177,7.3,1.101c2.044,0.031,4.047-0.579,5.728-1.745
		c0.735-0.577,1.334-1.307,1.757-2.14c-0.382,1.515-1.252,2.863-2.474,3.835c-1.681,1.166-3.684,1.775-5.729,1.745
		c-2.479,0.075-4.952-0.297-7.3-1.102c-0.864-0.386-1.812-0.551-2.758-0.482c-1.324,0.272-1.149,1.077-1.707,2.054
		c-0.78,1.336-3.711,1.596-4.307-0.099c-0.123-0.534-0.123-1.087,0-1.621c0.287-1.543-0.106-3.134-1.076-4.367
		c-1.448-1.646-3.885-1.795-6.062-2.079c-2.177-0.285-4.677-1.102-5.295-3.204c-0.445-1.51,0.234-3.354-0.729-4.591
		c-0.449-0.504-1.027-0.876-1.671-1.076c-1.587-0.716-3.371-0.873-5.061-0.446c-2.883,0.94-4.627,4.331-7.634,4.751
		c-0.455,0.089-0.924,0.037-1.349-0.148c-1.139-0.569-1.237-2.215-2.055-3.143c-1.374-1.447-3.972-0.507-5.653-1.583
		c-1.013-0.846-1.668-2.044-1.831-3.353C209.744,147.133,209.587,144.564,210.022,142.064z"/>
</g>
<path opacity="0.1" enable-background="new    " d="M273.072,232.531c-2.078,2.796-4.441,5.381-6.272,8.326
	c-1.989,2.903-2.954,6.385-2.746,9.898c1.893-1.943,2.771-4.64,3.959-7.077c2.027-4.132,5.048-7.634,7.609-11.419
	c0.482-0.73,3.601-4.949,2.028-5.122C276.339,226.95,273.777,231.578,273.072,232.531z"/>
</svg>
